; NON-PLATED HOLES START AT T1
; THROUGH (PLATED) HOLES START AT T100
M48
INCH
T100C0.035000
T101C0.040278
T102C0.038000
T103C0.040000
%
T100
X005522Y013622
X005522Y009622
X003022Y009822
X003022Y013822
T101
X015722Y021222
X010722Y021222
X011722Y021222
X011322Y002222
X025322Y002222
X022321Y021222
X012722Y021222
X021322Y002222
X015322Y002222
X018322Y021222
X016322Y002222
X014722Y021222
X012322Y002222
X023322Y021222
X007721Y021222
X018322Y002222
X020322Y021222
X024322Y021222
X019322Y021222
X016721Y021222
X023322Y002222
X021322Y021222
X020322Y002222
X025322Y021222
X008722Y021222
X017321Y002222
X014322Y002222
X024322Y002222
X022321Y002222
X013322Y002222
X009722Y021222
X013722Y021222
T102
X016622Y016522
X017622Y016522
X026022Y012022
X018622Y016522
X026022Y013022
T103
X008022Y012322
X008022Y013322
X008022Y009322
X008022Y011322
X008022Y008322
X008022Y010322
T00
M30
